<svg width="24" height="25" viewBox="0 0 24 25" fill="none" xmlns="http://www.w3.org/2000/svg">
<g id="Social">
<path id="Vector" d="M16 16.5C17.6569 16.5 19 17.8431 19 19.5C19 21.1569 17.6569 22.5 16 22.5C14.3431 22.5 13 21.1569 13 19.5C13 17.8431 14.3431 16.5 16 16.5ZM6 12.5C8.20914 12.5 10 14.2909 10 16.5C10 18.7091 8.20914 20.5 6 20.5C3.79086 20.5 2 18.7091 2 16.5C2 14.2909 3.79086 12.5 6 12.5ZM14.5 2.5C17.5376 2.5 20 4.96243 20 8C20 11.0376 17.5376 13.5 14.5 13.5C11.4624 13.5 9 11.0376 9 8C9 4.96243 11.4624 2.5 14.5 2.5Z" fill="#0078FF"/>
</g>
</svg>
