<svg width="24" height="25" viewBox="0 0 24 25" fill="none" xmlns="http://www.w3.org/2000/svg">
<path d="M10.6144 17.8967L11.492 15.8865C12.2731 14.0977 13.6789 12.6737 15.4325 11.8953L17.8482 10.823C18.6162 10.4821 18.6162 9.36475 17.8482 9.02384L15.5079 7.98502C13.7092 7.1866 12.2782 5.70989 11.5105 3.86002L10.6215 1.71781C10.2916 0.92284 9.19319 0.922842 8.8633 1.71781L7.97427 3.86C7.20657 5.70989 5.77553 7.1866 3.97685 7.98502L1.63658 9.02384C0.868537 9.36475 0.868536 10.4821 1.63658 10.823L4.0523 11.8953C5.80589 12.6737 7.21171 14.0977 7.99275 15.8865L8.8704 17.8967C9.20776 18.6693 10.277 18.6693 10.6144 17.8967ZM19.4014 22.791L19.6482 22.2253C20.0882 21.2167 20.8807 20.4136 21.8695 19.9743L22.6299 19.6364C23.0412 19.4537 23.0412 18.856 22.6299 18.6733L21.9121 18.3543C20.8978 17.9037 20.0911 17.0709 19.6586 16.028L19.4052 15.4167C19.2285 14.9907 18.6395 14.9907 18.4628 15.4167L18.2094 16.028C17.777 17.0709 16.9703 17.9037 15.956 18.3543L15.2381 18.6733C14.8269 18.856 14.8269 19.4537 15.2381 19.6364L15.9985 19.9743C16.9874 20.4136 17.7798 21.2167 18.2198 22.2253L18.4667 22.791C18.6473 23.2051 19.2207 23.2051 19.4014 22.791Z" fill="#0078FF"/>
</svg>
