<svg width="701" height="657" viewBox="0 0 701 657" fill="none" xmlns="http://www.w3.org/2000/svg">
<g opacity="0.32" filter="url(#filter0_f_1_940)">
<path d="M-136.914 529.485C-98.1714 576.53 -45.5034 610.071 13.5115 625.283C72.5264 640.496 134.846 636.595 191.503 614.142C248.16 591.689 296.235 551.842 328.809 500.334C361.383 448.826 376.778 388.312 372.779 327.5C368.78 266.687 345.592 208.711 306.552 161.912C267.513 115.114 214.634 81.9062 155.524 67.0671C96.4143 52.2281 34.1207 56.5226 -22.3936 79.3329C-78.9079 102.143 -126.729 142.293 -158.978 194.006L-93.8955 234.591C-70.2356 196.65 -35.1498 167.193 6.31375 150.458C47.7773 133.722 93.4809 130.571 136.849 141.458C180.217 152.346 219.013 176.709 247.656 211.045C276.298 245.38 293.311 287.916 296.245 332.533C299.179 377.15 287.884 421.548 263.985 459.339C240.086 497.129 204.814 526.364 163.246 542.838C121.677 559.311 75.9548 562.173 32.6566 551.011C-10.6416 539.85 -49.2831 515.242 -77.7081 480.726L-136.914 529.485Z" fill="#409AFF"/>
</g>
<defs>
<filter id="filter0_f_1_940" x="-485.978" y="-268.601" width="1186.38" height="1230" filterUnits="userSpaceOnUse" color-interpolation-filters="sRGB">
<feFlood flood-opacity="0" result="BackgroundImageFix"/>
<feBlend mode="normal" in="SourceGraphic" in2="BackgroundImageFix" result="shape"/>
<feGaussianBlur stdDeviation="163.5" result="effect1_foregroundBlur_1_940"/>
</filter>
</defs>
</svg>
