<svg width="701" height="900" viewBox="0 0 701 900" fill="none" xmlns="http://www.w3.org/2000/svg">
<g opacity="0.24" filter="url(#filter0_f_1_933)">
<path d="M543.314 170.59C472.047 210.883 410.14 268.799 370.966 331.826C331.791 394.854 318.496 457.932 333.95 507.436C349.405 556.94 392.369 588.894 453.561 596.395C514.754 603.897 589.262 586.343 660.99 547.527C732.718 508.711 795.907 451.749 836.907 388.945C877.907 326.142 893.426 262.539 880.112 211.877C866.797 161.216 825.719 127.562 765.749 118.187C705.78 108.811 631.735 124.467 559.61 161.771L576.616 232.942C622.422 209.25 669.448 199.308 707.534 205.262C745.62 211.216 771.709 232.589 780.165 264.764C788.621 296.939 778.765 337.333 752.726 377.219C726.687 417.106 686.556 453.282 641.002 477.934C595.448 502.586 548.128 513.734 509.265 508.97C470.402 504.206 443.115 483.912 433.3 452.472C423.485 421.033 431.929 380.972 456.809 340.943C481.688 300.915 521.005 264.133 566.266 238.543L543.314 170.59Z" fill="#FF725E"/>
</g>
<defs>
<filter id="filter0_f_1_933" x="0.662567" y="-211.47" width="1211.1" height="1136.56" filterUnits="userSpaceOnUse" color-interpolation-filters="sRGB">
<feFlood flood-opacity="0" result="BackgroundImageFix"/>
<feBlend mode="normal" in="SourceGraphic" in2="BackgroundImageFix" result="shape"/>
<feGaussianBlur stdDeviation="163.5" result="effect1_foregroundBlur_1_933"/>
</filter>
</defs>
</svg>
