<svg width="280" height="104" viewBox="0 0 280 104" fill="none" xmlns="http://www.w3.org/2000/svg">
<rect width="40" height="40" rx="20" fill="white"/>
<path d="M16 10H9L17.2609 21.0145L9.44995 29.9999H12.1L18.4883 22.651L24 30H31L22.3917 18.5223L29.8001 10H27.1501L21.1643 16.8858L16 10ZM25 28L13 12H15L27 28H25Z" fill="#000C1A"/>
<rect x="64" width="40" height="40" rx="20" fill="white"/>
<path d="M87.4024 29V22.0344H89.7347L90.0838 19.3265H87.4024V17.5976C87.4024 16.8136 87.62 16.2793 88.7443 16.2793L90.1783 16.2787V13.8568C89.9302 13.8238 89.0791 13.7501 88.0888 13.7501C86.0213 13.7501 84.606 15.012 84.606 17.3295V19.3265H82.2677V22.0344H84.606V29H76C75.4477 29 75 28.5523 75 28V12C75 11.4477 75.4477 11 76 11H92C92.5523 11 93 11.4477 93 12V28C93 28.5523 92.5523 29 92 29H87.4024Z" fill="#000C1A"/>
<rect x="128" width="40" height="40" rx="20" fill="white"/>
<path d="M148.293 12C148.934 12.0029 150.538 12.0159 152.242 12.0727L152.846 12.0947C154.561 12.1624 156.275 12.278 157.125 12.4755C158.259 12.741 159.151 13.5156 159.452 14.4974C159.931 16.0566 159.991 19.0997 159.999 19.8362L160 19.9888V19.9995C160 19.9995 160 20.0032 160 20.0103L159.999 20.1629C159.991 20.8993 159.931 23.9424 159.452 25.5016C159.146 26.4871 158.255 27.2617 157.125 27.5235C156.275 27.721 154.561 27.8366 152.846 27.9043L152.242 27.9262C150.538 27.9831 148.934 27.996 148.293 27.999L148.012 27.9998H147.999C147.999 27.9998 147.995 27.9998 147.987 27.9998L147.706 27.999C146.349 27.9928 140.677 27.9417 138.874 27.5235C137.74 27.258 136.848 26.4835 136.547 25.5016C136.067 23.9424 136.007 20.8993 136 20.1629V19.8362C136.007 19.0997 136.067 16.0566 136.547 14.4974C136.853 13.5119 137.744 12.7374 138.874 12.4755C140.677 12.0572 146.349 12.0062 147.706 12H148.293ZM145.599 16.4993V23.4996L152.8 19.9995L145.599 16.4993Z" fill="#000C1A"/>
<rect x="192" width="40" height="40" rx="20" fill="white"/>
<path d="M213.639 8.11331C207.704 7.29522 202.075 10.982 200.451 16.751C198.827 22.52 201.706 28.6029 207.197 31.0026C207.125 30.0808 207.19 29.1535 207.391 28.2512C207.613 27.2448 208.947 21.6958 208.947 21.6958C208.681 21.1007 208.548 20.4547 208.557 19.803C208.557 18.021 209.585 16.6915 210.865 16.6915C211.33 16.6846 211.775 16.8803 212.084 17.2277C212.393 17.5752 212.536 18.04 212.475 18.5011C212.475 19.5814 211.781 21.2157 211.42 22.7483C211.275 23.3186 211.409 23.9243 211.781 24.3799C212.154 24.8354 212.721 25.0866 213.309 25.0566C215.586 25.0566 217.113 22.1389 217.113 18.6951C217.113 16.0544 215.364 14.0786 212.142 14.0786C210.584 14.0183 209.07 14.5995 207.952 15.6865C206.834 16.7735 206.211 18.2713 206.227 19.8307C206.192 20.6866 206.468 21.526 207.004 22.1944C207.21 22.3476 207.289 22.6189 207.199 22.8592C207.143 23.0807 207.004 23.607 206.948 23.8009C206.925 23.9335 206.84 24.0473 206.72 24.1073C206.599 24.1674 206.457 24.1668 206.337 24.1056C204.676 23.4408 203.893 21.6126 203.893 19.5261C203.893 16.1098 206.755 12.0196 212.477 12.0196C217.032 12.0196 220.06 15.3527 220.06 18.9166C220.06 23.607 217.449 27.134 213.589 27.134C212.416 27.1712 211.306 26.6072 210.644 25.6382C210.644 25.6382 209.95 28.4174 209.813 28.9436C209.534 29.8518 209.123 30.7136 208.591 31.5012C209.698 31.837 210.85 32.0052 212.006 31.9999C215.189 32.0019 218.242 30.738 220.492 28.4863C222.741 26.2347 224.004 23.1804 224 19.9969C223.997 14.0036 219.574 8.93139 213.639 8.11331Z" fill="#000C1A"/>
<rect y="64" width="40" height="40" rx="20" fill="white"/>
<path d="M20 72C26.6274 72 32 77.3726 32 84C32 90.6274 26.6274 96 20 96C17.7993 96 15.737 95.4077 13.9639 94.3736L8.00502 96L9.62737 90.0378C8.59275 88.2643 8 86.2014 8 84C8 77.3726 13.3726 72 20 72ZM15.6696 78.37C15.5143 78.3809 15.3621 78.4188 15.2235 78.4897C15.1195 78.5429 15.023 78.6198 14.8713 78.763C14.7281 78.8983 14.6451 79.0164 14.5577 79.1302C14.114 79.7078 13.8756 80.4169 13.88 81.1452C13.8824 81.7339 14.0353 82.3061 14.2769 82.8403C14.7666 83.9237 15.5743 85.069 16.6412 86.1311C16.8974 86.3862 17.1485 86.6441 17.4192 86.8824C18.7434 88.0483 20.3214 88.889 22.0277 89.3378C22.0277 89.3378 22.6997 89.441 22.7095 89.4416C22.9321 89.4536 23.1543 89.4376 23.3772 89.4262C23.7267 89.4082 24.068 89.3136 24.3769 89.1491C24.5755 89.0434 24.6695 88.9908 24.8361 88.8857C24.8361 88.8857 24.8873 88.8511 24.9859 88.7777C25.1479 88.657 25.248 88.572 25.3827 88.4321C25.4821 88.3289 25.5675 88.207 25.6335 88.0696C25.7274 87.8737 25.8218 87.4999 25.8594 87.1895C25.8881 86.9524 25.8794 86.8228 25.8763 86.7425C25.8711 86.6134 25.7645 86.4805 25.6476 86.4241L24.9498 86.1104C24.9498 86.1104 23.9064 85.6564 23.2682 85.3652C23.2017 85.3349 23.129 85.3208 23.0559 85.3164C22.8959 85.3066 22.7165 85.3483 22.6023 85.4686C22.5963 85.4662 22.5169 85.5348 21.6487 86.5866C21.6008 86.6438 21.4886 86.7683 21.2946 86.7566C21.2653 86.7546 21.2361 86.7504 21.2077 86.743C21.1291 86.7222 21.0525 86.6948 20.9777 86.6632C20.8292 86.6002 20.7771 86.5763 20.6757 86.5326C19.983 86.23 19.3472 85.8251 18.7853 85.3296C18.6345 85.1969 18.4944 85.054 18.3499 84.9139C17.8457 84.4252 17.4329 83.9053 17.1257 83.3926C17.109 83.3646 17.0831 83.3242 17.0553 83.2789C17.0051 83.1972 16.9497 83.1 16.9323 83.0333C16.8877 82.8568 17.006 82.7149 17.006 82.7149C17.006 82.7149 17.2981 82.3956 17.4338 82.222C17.5644 82.0548 17.6771 81.8914 17.7488 81.7748C17.8902 81.5476 17.9349 81.3127 17.8607 81.1316C17.524 80.3108 17.1766 79.4944 16.8187 78.6827C16.748 78.5225 16.5378 78.4062 16.3467 78.3841C16.282 78.3766 16.2173 78.3691 16.1523 78.3648C15.9915 78.357 15.8303 78.3587 15.6696 78.37Z" fill="#000C1A"/>
<rect x="64" y="64" width="40" height="40" rx="20" fill="white"/>
<path d="M85.233 72C86.5835 72.0022 87.2679 72.0094 87.8593 72.027L88.0922 72.0346C88.3613 72.0442 88.6267 72.0562 88.9468 72.0712C90.2237 72.1302 91.0948 72.3322 91.8599 72.6292C92.6508 72.9342 93.3189 73.3462 93.9859 74.0132C94.6519 74.6802 95.064 75.3503 95.37 76.1393C95.6659 76.9033 95.868 77.7754 95.928 79.0524C95.9423 79.3724 95.9538 79.6379 95.9633 79.907L95.9708 80.1399C95.9884 80.7312 95.9964 81.4157 95.9989 82.7662L95.9999 83.6611C96 83.7704 96 83.8832 96 83.9996L95.9999 84.3381L95.9992 85.233C95.9969 86.5835 95.9898 87.2679 95.9722 87.8593L95.9645 88.0922C95.955 88.3613 95.943 88.6267 95.928 88.9468C95.869 90.2237 95.6659 91.0948 95.37 91.8599C95.0649 92.6508 94.6519 93.3189 93.9859 93.9859C93.3189 94.6519 92.6478 95.064 91.8599 95.37C91.0948 95.6659 90.2237 95.868 88.9468 95.928C88.6267 95.9423 88.3613 95.9538 88.0922 95.9633L87.8593 95.9708C87.2679 95.9884 86.5835 95.9964 85.233 95.9989L84.3381 95.9999C84.2288 96 84.116 96 83.9996 96L83.6611 95.9999L82.7662 95.9992C81.4157 95.9969 80.7312 95.9898 80.1399 95.9722L79.907 95.9645C79.6379 95.955 79.3724 95.943 79.0524 95.928C77.7754 95.869 76.9053 95.6659 76.1393 95.37C75.3493 95.0649 74.6802 94.6519 74.0132 93.9859C73.3462 93.3189 72.9352 92.6478 72.6292 91.8599C72.3322 91.0948 72.1312 90.2237 72.0712 88.9468C72.0569 88.6267 72.0453 88.3613 72.0359 88.0922L72.0283 87.8593C72.0108 87.2679 72.0027 86.5835 72.0002 85.233L72 82.7662C72.0022 81.4157 72.0094 80.7312 72.027 80.1399L72.0346 79.907C72.0442 79.6379 72.0562 79.3724 72.0712 79.0524C72.1302 77.7744 72.3322 76.9043 72.6292 76.1393C72.9342 75.3493 73.3462 74.6802 74.0132 74.0132C74.6802 73.3462 75.3503 72.9352 76.1393 72.6292C76.9043 72.3322 77.7744 72.1312 79.0524 72.0712C79.3724 72.0569 79.6379 72.0453 79.907 72.0359L80.1399 72.0283C80.7312 72.0108 81.4157 72.0027 82.7662 72.0002L85.233 72ZM83.9996 77.9994C80.684 77.9994 77.9994 80.6869 77.9994 83.9996C77.9994 87.3152 80.6869 89.9998 83.9996 89.9998C87.3152 89.9998 89.9998 87.3122 89.9998 83.9996C89.9998 80.684 87.3122 77.9994 83.9996 77.9994ZM83.9996 80.3994C85.9879 80.3994 87.5997 82.0106 87.5997 83.9996C87.5997 85.9879 85.9884 87.5997 83.9996 87.5997C82.0112 87.5997 80.3994 85.9884 80.3994 83.9996C80.3994 82.0112 82.0106 80.3994 83.9996 80.3994ZM90.2998 76.1993C89.4726 76.1993 88.7998 76.8712 88.7998 77.6983C88.7998 78.5255 89.4717 79.1984 90.2998 79.1984C91.1269 79.1984 91.7999 78.5265 91.7999 77.6983C91.7999 76.8712 91.1258 76.1983 90.2998 76.1993Z" fill="#000C1A"/>
</svg>
