<svg width="24" height="25" viewBox="0 0 24 25" fill="none" xmlns="http://www.w3.org/2000/svg">
<path d="M18 2.10107C18.5523 2.10107 19 2.54879 19 3.10107L19.0009 11.6297C17.9393 10.6791 16.5371 10.1011 15 10.1011C11.6863 10.1011 9 12.7874 9 16.1011C9 19.3395 11.76 22.1011 15 22.1011H6C5.44772 22.1011 5 21.6534 5 21.1011V3.10107C5 2.54879 5.44772 2.10107 6 2.10107H18ZM15 12.1011C17.2091 12.1011 19 13.892 19 16.1011C19 16.8429 18.7981 17.5376 18.4462 18.1331L20.6569 20.3437L19.2426 21.758L17.032 19.5473C16.4365 19.8992 15.7418 20.1011 15 20.1011C12.7909 20.1011 11 18.3102 11 16.1011C11 13.892 12.7909 12.1011 15 12.1011ZM15 14.1011C13.8954 14.1011 13 14.9965 13 16.1011C13 17.2057 13.8954 18.1011 15 18.1011C16.1046 18.1011 17 17.2057 17 16.1011C17 14.9965 16.1046 14.1011 15 14.1011Z" fill="#0078FF"/>
</svg>
