<svg width="100" height="101" viewBox="0 0 100 101" fill="none" xmlns="http://www.w3.org/2000/svg">
<path d="M50 91.9347C26.9881 91.9347 8.33333 73.2797 8.33333 50.268C8.33333 27.2561 26.9881 8.60132 50 8.60132C73.0117 8.60132 91.6667 27.2561 91.6667 50.268C91.6667 73.2797 73.0117 91.9347 50 91.9347ZM44.2579 35.3288C43.9842 35.1462 43.6625 35.0489 43.3333 35.0489C42.4129 35.0489 41.6667 35.795 41.6667 36.7155V63.8205C41.6667 64.1497 41.7642 64.4713 41.9467 64.7451C42.4571 65.5109 43.4921 65.718 44.2579 65.2072L64.5867 51.6547C64.7696 51.5326 64.9267 51.3755 65.0487 51.1926C65.5596 50.4267 65.3525 49.3917 64.5867 48.8813L44.2579 35.3288Z" fill="white"/>
</svg>
