<svg width="24" height="25" viewBox="0 0 24 25" fill="none" xmlns="http://www.w3.org/2000/svg">
<path d="M11 2.5C15.0675 2.5 18.426 5.53562 18.9337 9.46494L21.1842 13.0037C21.3324 13.2367 21.3025 13.5847 20.9593 13.7317L19 14.571V17.5C19 18.6046 18.1046 19.5 17 19.5H15.001L15 22.5H6L6.00025 18.8061C6.00033 17.6252 5.56351 16.5087 4.7555 15.5011C3.65707 14.1313 3 12.3924 3 10.5C3 6.08172 6.58172 2.5 11 2.5ZM11 7.5C10.4477 7.5 10 7.94772 10 8.5V9.499L9 9.5C8.44772 9.5 8 9.94772 8 10.5C8 11.0523 8.44772 11.5 9 11.5L10 11.499V12.5C10 13.0523 10.4477 13.5 11 13.5C11.5523 13.5 12 13.0523 12 12.5V11.5H13C13.5523 11.5 14 11.0523 14 10.5C14 9.94772 13.5523 9.5 13 9.5H12V8.5C12 7.94772 11.5523 7.5 11 7.5Z" fill="#0078FF"/>
</svg>
