<svg width="244" height="187" viewBox="0 0 244 187" fill="none" xmlns="http://www.w3.org/2000/svg">
<path opacity="0.1" d="M243.306 94.3491C240.993 91.4539 239.067 88.2303 236.501 85.3948C236.011 84.8634 235.653 84.2244 235.456 83.5293C233.42 83.2618 231.35 83.5775 229.486 84.4397C222.263 87.6781 215.682 93.1552 209.966 98.5576C208.742 99.7067 207.489 100.796 206.235 101.9C211.876 95.6027 217.517 89.2899 223.233 83.0518C224.075 82.1767 224.734 81.1427 225.173 80.0102C225.611 78.8777 225.819 77.6693 225.785 76.4555C223.149 73.4478 220.236 70.6947 217.085 68.2325C216.498 67.8328 215.992 67.3266 215.592 66.7401C213.353 66.9333 211.281 68.0067 209.832 69.7249C197.609 83.007 185.506 96.0653 172 107.974C173.089 106.482 174.179 104.99 175.224 103.393C182.312 92.8716 189.909 82.7682 197.833 72.8588C203.415 65.8745 213.055 57.2934 214.831 48.0406C214.473 47.5929 214.1 47.1303 213.712 46.6825C213.324 46.2348 212.712 45.5334 212.22 44.9812C211.722 44.8864 211.246 44.6991 210.817 44.4291C208.444 42.9367 206.937 39.7131 208.832 37.1164C209.239 36.5361 209.744 36.0311 210.324 35.624C213.204 31.9975 216.025 28.3412 218.711 24.5655C218.851 24.3685 218.981 24.1642 219.099 23.9536C217.174 18.4169 212.578 14.4024 208.101 10.6267C206.475 11.0137 205.006 11.8885 203.892 13.1339C198.505 18.9691 192.326 24.1178 187.342 30.3112C181.984 36.9522 177.567 44.2947 172.492 51.1298C172.4 51.2327 172.315 51.3425 172.239 51.4581C166.09 58.2932 159.927 65.1134 153.957 72.0977C148.764 77.3509 143.51 82.5444 138.377 87.6483C130.273 95.8564 122.05 104.064 113.514 111.959C115.633 108.825 117.752 105.706 119.931 102.602C129.542 88.9168 140.212 76.0078 150.495 62.8301C155.569 56.3382 160.21 49.5479 165.12 42.9516C169 37.7581 174.806 33.0124 177.85 27.2966C178.479 26.1551 178.884 24.9039 179.044 23.6104C178.697 23.3155 178.382 22.9854 178.104 22.6254C175.558 19.6098 172.385 17.1856 168.806 15.5217C168.01 15.1329 167.353 14.5074 166.926 13.7309C165.49 14.1548 164.161 14.8826 163.031 15.865C158.209 20.0222 153.658 24.4836 149.405 29.2217C150.797 26.9112 151.905 24.4408 152.704 21.8643C155.121 13.6115 145.913 7.53749 138.839 11.2087L138.227 11.5371C137.402 9.17205 135.755 7.18229 133.585 5.9304C131.416 4.67851 128.868 4.24786 126.408 4.71691C123.677 1.07551 118.946 -0.834731 114.603 2.43357C96.9035 15.9545 80.0397 30.9231 63.34 45.7125C61.8476 47.0556 60.3552 48.4137 58.8629 49.7718C61.7525 45.2243 64.8706 40.8261 68.2051 36.5941C72.0406 31.7289 77.3833 26.6548 79.4278 20.6107C79.218 20.4832 79.0229 20.3331 78.8458 20.163C74.4596 16.1766 70.7633 11.492 67.9067 6.29883C67.9123 6.25423 67.9123 6.20911 67.9067 6.16452C60.4448 7.83598 52.6546 12.6564 46.3567 16.2828C38.2351 21.1013 30.5632 26.6404 23.4338 32.8333C23.443 33.6129 23.3064 34.3873 23.0309 35.1166C22.8622 35.5386 22.6627 35.9477 22.4339 36.3404V37.6686C23.0491 38.8826 23.5487 40.1517 23.9263 41.4592C25.0857 42.0019 26.0685 42.8605 26.7618 43.9366C27.4267 45.1403 27.7517 46.5022 27.702 47.8765C27.702 48.2495 27.6125 48.6226 27.5528 48.9957C28.2637 49.5375 28.7859 50.2894 29.0452 51.1448C30.7587 50.827 32.353 50.0478 33.6566 48.8913C35.6266 47.175 37.6263 45.5185 39.6261 43.8918C37.0443 48.2048 34.5819 52.5924 32.0747 56.7859C27.6871 64.1732 23.1204 71.3366 18.0613 78.3209C14.2259 83.6338 9.107 88.2602 8.46528 94.1401C12.0321 97.1249 14.5094 100.96 17.5986 104.467C17.7561 104.656 17.9007 104.856 18.0314 105.064C21.2595 104.795 24.3542 103.655 26.9857 101.766C26.1649 102.736 25.359 103.721 24.6128 104.751C17.8523 114.004 8.30113 121.48 2.22716 131.121C1.4988 132.211 0.991732 133.433 0.734779 134.718L2.85395 137.404C3.45586 138.079 3.86823 138.901 4.04911 139.787C4.22999 140.673 4.17292 141.592 3.8837 142.448L4.03292 142.583C3.77922 142.881 3.52551 143.165 3.28673 143.478C2.27031 144.764 1.54706 146.256 1.16756 147.851C3.99384 152.286 7.52203 156.233 11.6142 159.536C17.1658 159.133 22.0609 155.522 26.9708 152.701C30.3137 150.776 33.6417 148.806 36.9398 146.732C35.264 148.835 33.86 151.142 32.7612 153.596C32.3575 154.549 32.0912 155.554 31.9702 156.581C32.2461 156.736 32.5104 156.911 32.7612 157.104C36.8714 160.094 40.6846 163.472 44.148 167.192C44.6598 167.001 45.1583 166.777 45.6404 166.52C48.8776 164.755 52.0026 162.791 54.9976 160.64C54.5174 162.023 54.2703 163.475 54.2663 164.939C55.0098 164.833 55.7672 164.891 56.4862 165.107C57.2051 165.324 57.8684 165.694 58.4301 166.192C61.1163 168.505 63.2803 171.46 65.892 173.803C66.7492 173.595 67.5627 173.236 68.2947 172.744C75.3238 167.983 81.2784 161.715 87.9941 156.521C89.6805 155.208 91.3818 153.925 93.0831 152.641C92.6358 153.976 92.4731 155.389 92.6055 156.79C93.2772 156.97 93.903 157.29 94.4411 157.73C97.6647 160.327 100.814 162.998 104.007 165.64C104.822 165.341 105.591 164.929 106.291 164.416C109.456 162.154 112.449 159.66 115.245 156.954C115.325 157.514 115.445 158.068 115.603 158.611C116.223 158.325 116.906 158.205 117.587 158.262C118.267 158.32 118.92 158.553 119.483 158.939C122.091 160.806 124.582 162.83 126.945 164.998C130.661 164.013 133.243 161.297 136.243 159.029L137.735 157.865C137.928 158.238 138.148 158.597 138.392 158.939C139.334 158.806 140.292 159.03 141.078 159.566C142.359 160.514 143.576 161.546 144.719 162.655L145.212 163.118C146.483 163.361 147.791 163.325 149.047 163.013C155.942 161.163 162.105 156.417 168.015 152.253C166.851 153.596 165.687 154.954 164.553 156.342C160.24 161.64 153.912 167.401 151.719 174.102C152.01 174.382 152.266 174.698 152.48 175.042C153.301 176.4 154.226 177.758 155.211 179.086C158.466 180.994 161.394 183.413 163.881 186.25C164.361 186.126 164.83 185.967 165.284 185.772C172.224 182.787 177.402 177.206 182.596 171.908C186.312 168.147 189.879 164.252 193.356 160.282C193.56 160.806 193.82 161.307 194.132 161.775C194.98 161.504 195.884 161.459 196.754 161.642C197.625 161.825 198.434 162.231 199.102 162.819C200.594 164.058 202.221 165.192 203.817 166.341C205.239 166.253 206.624 165.856 207.877 165.178C209.129 164.501 210.219 163.558 211.07 162.416C218.816 152.343 240.545 124.868 233.307 109.347C236.926 105.852 239.95 101.789 242.261 97.3189C242.747 96.383 243.099 95.3832 243.306 94.3491Z" fill="white"/>
</svg>
