<svg width="23" height="12" viewBox="0 0 23 12" fill="none" xmlns="http://www.w3.org/2000/svg">
<path d="M22.5454 1.81461L7.159 11.6643C7.00811 11.7451 6.83163 11.7638 6.66717 11.7164C6.5027 11.669 6.36325 11.5593 6.2785 11.4106L0.159743 2.06831C0.10684 2.00109 0.0679126 1.92396 0.0452459 1.84148C0.0225792 1.75899 0.0166336 1.6728 0.0277571 1.58798C0.0388806 1.50317 0.0668393 1.42143 0.110009 1.34758C0.153179 1.27373 0.210665 1.20926 0.279113 1.15796C0.428979 1.07957 0.602926 1.06061 0.766158 1.10488C0.929389 1.14914 1.06992 1.25336 1.15966 1.39672L6.90527 10.1719L21.829 0.650532C21.9799 0.569726 22.1564 0.551041 22.3209 0.59843C22.4853 0.645819 22.6248 0.755555 22.7095 0.904256C22.7602 0.97423 22.7962 1.0537 22.8154 1.13792C22.8346 1.22214 22.8365 1.30935 22.8212 1.39435C22.8059 1.47936 22.7736 1.5604 22.7262 1.63261C22.6788 1.70482 22.6173 1.76673 22.5454 1.81461Z" fill="white"/>
</svg>
