<svg width="7" height="15" viewBox="0 0 7 15" fill="none" xmlns="http://www.w3.org/2000/svg">
<path d="M1.71112 14.5454C1.62146 14.6009 1.51808 14.6303 1.41263 14.6303C1.30717 14.6303 1.20384 14.6009 1.11418 14.5454C0.954852 14.4622 0.830886 14.3243 0.765084 14.1571C0.699282 13.9898 0.696081 13.8045 0.756021 13.635L5.78532 0.845338C5.81585 0.768829 5.86311 0.700115 5.92364 0.64424C5.98417 0.588364 6.0564 0.546759 6.1351 0.522433C6.2138 0.498107 6.29694 0.491692 6.37844 0.503669C6.45994 0.515646 6.53774 0.545697 6.60611 0.591637C6.76123 0.67922 6.88152 0.817502 6.94673 0.983267C7.01195 1.14903 7.01812 1.33219 6.96427 1.50199L1.92007 14.2917C1.87625 14.3946 1.80369 14.4826 1.71112 14.5454Z" fill="white"/>
</svg>
