<svg width="21" height="4" viewBox="0 0 21 4" fill="none" xmlns="http://www.w3.org/2000/svg">
<path d="M20.1898 2.94805C20.0982 3.01095 19.9865 3.03755 19.8764 3.02267L1.34106 1.97801C1.16116 1.96387 0.992482 1.88499 0.866263 1.75603C0.740044 1.62707 0.664848 1.45675 0.654576 1.27659C0.643347 1.1955 0.650272 1.11291 0.674888 1.03482C0.699504 0.956742 0.741191 0.885112 0.7969 0.825118C0.852609 0.765124 0.920972 0.718265 0.997019 0.68794C1.07307 0.657616 1.15487 0.644598 1.23658 0.649797L19.7719 1.69446C19.9491 1.71199 20.1143 1.79233 20.2374 1.92097C20.3606 2.0496 20.4336 2.21806 20.4435 2.39588C20.4598 2.50264 20.4445 2.61184 20.3994 2.70999C20.3543 2.80814 20.2814 2.89091 20.1898 2.94805Z" fill="white"/>
</svg>
