<svg width="11" height="17" viewBox="0 0 11 17" fill="none" xmlns="http://www.w3.org/2000/svg">
<path d="M1.0858 16.617C0.984791 16.6933 0.86169 16.7345 0.735118 16.7345C0.608545 16.7345 0.485399 16.6933 0.384385 16.617C0.241591 16.5122 0.141717 16.3591 0.10329 16.1861C0.0648623 16.0132 0.0905185 15.8322 0.175476 15.6768L9.42823 1.09628C9.47462 1.02747 9.53555 0.969683 9.60672 0.926992C9.67788 0.884301 9.75754 0.857743 9.84008 0.849203C9.92263 0.840664 10.006 0.850335 10.0844 0.877554C10.1628 0.904773 10.2343 0.948883 10.2938 1.00674C10.4366 1.11157 10.5365 1.26466 10.5749 1.43758C10.6133 1.61051 10.5877 1.79148 10.5027 1.94692L1.24999 16.5125C1.20391 16.5594 1.14775 16.5951 1.0858 16.617Z" fill="white"/>
</svg>
