<svg width="18" height="3" viewBox="0 0 18 3" fill="none" xmlns="http://www.w3.org/2000/svg">
<path d="M17.2311 2.32116C17.1381 2.38186 17.0288 2.41307 16.9177 2.4107L1.39699 1.72422C1.2182 1.7071 1.05124 1.6273 0.925613 1.49894C0.799981 1.37057 0.723779 1.20192 0.71051 1.0228C0.697144 0.941887 0.701963 0.859003 0.724628 0.780188C0.747294 0.701373 0.787233 0.62861 0.841539 0.567158C0.895845 0.505706 0.963178 0.457111 1.03861 0.424925C1.11404 0.392738 1.19568 0.377753 1.27762 0.381066L16.7983 1.06757C16.9782 1.08171 17.1469 1.16056 17.2731 1.28953C17.3993 1.41849 17.4745 1.58883 17.4848 1.76899C17.5012 1.87575 17.4859 1.98496 17.4408 2.0831C17.3957 2.18125 17.3228 2.26402 17.2311 2.32116Z" fill="white"/>
</svg>
