<svg width="18" height="3" viewBox="0 0 18 3" fill="none" xmlns="http://www.w3.org/2000/svg">
<path d="M0.611146 2.42509C0.70884 2.48784 0.823421 2.5191 0.939448 2.51463L16.8333 1.46997C17.0105 1.45243 17.1756 1.37209 17.2988 1.24346C17.4219 1.11482 17.495 0.946368 17.5048 0.768549C17.519 0.686966 17.5142 0.603196 17.4907 0.523797C17.4672 0.444398 17.4256 0.371517 17.3692 0.310834C17.3129 0.250152 17.2433 0.203329 17.1658 0.173998C17.0884 0.144667 17.0052 0.133626 16.9228 0.141753L1.02901 1.1715C0.849349 1.18944 0.682283 1.27191 0.558794 1.40363C0.435305 1.53536 0.363751 1.70739 0.357422 1.88783C0.340114 1.99255 0.355137 2.10007 0.400461 2.19605C0.445785 2.29203 0.519279 2.37192 0.611146 2.42509Z" fill="white"/>
</svg>
