<svg width="45" height="51" viewBox="0 0 45 51" fill="none" xmlns="http://www.w3.org/2000/svg">
<path d="M0.510995 29.2759H0.615473C11.4651 33.0516 43.0587 50.2736 43.387 50.4378C43.5436 50.5094 43.722 50.5168 43.8839 50.4581C44.0458 50.3995 44.1782 50.2796 44.2526 50.1243C44.3001 50.054 44.3332 49.9748 44.35 49.8916C44.3667 49.8083 44.3668 49.7225 44.3501 49.6392C44.3335 49.5559 44.3004 49.4768 44.2529 49.4063C44.2055 49.3359 44.1445 49.2756 44.0735 49.2289C43.7601 49.0648 13.1216 32.38 1.7049 28.2013C3.19728 24.545 10.8382 6.00968 15.1363 1.48778C15.2527 1.35887 15.3171 1.19136 15.3171 1.01768C15.3171 0.84399 15.2527 0.676501 15.1363 0.547597C15.079 0.486132 15.0097 0.437103 14.9327 0.403587C14.8557 0.370072 14.7726 0.352783 14.6886 0.352783C14.6046 0.352783 14.5215 0.370072 14.4445 0.403587C14.3674 0.437103 14.2981 0.486132 14.2409 0.547597C9.36081 5.74107 0.675158 27.4104 0.302063 28.3655C0.251205 28.4375 0.216121 28.5194 0.199066 28.6059C0.182011 28.6923 0.18338 28.7814 0.203097 28.8673C0.222814 28.9533 0.260438 29.0341 0.313495 29.1045C0.366551 29.1748 0.433835 29.2332 0.510995 29.2759Z" fill="white"/>
</svg>
