<svg width="45" height="53" viewBox="0 0 45 53" fill="none" xmlns="http://www.w3.org/2000/svg">
<path d="M14.355 52.1691H14.161C13.9865 52.1881 13.811 52.1424 13.6679 52.0406C13.5249 51.9388 13.4242 51.788 13.385 51.6169C9.69879 38.081 0.744531 24.9929 0.654988 24.8735C0.596885 24.7951 0.555088 24.7058 0.53202 24.611C0.508952 24.5161 0.505086 24.4177 0.52068 24.3213C0.532373 24.2364 0.564216 24.1555 0.613543 24.0854C0.662871 24.0153 0.728256 23.958 0.804235 23.9184C13.176 17.3818 42.7997 0.458215 43.0982 0.279129C43.2551 0.205692 43.4344 0.195747 43.5984 0.25137C43.7625 0.306994 43.8988 0.423875 43.9787 0.5776C44.0755 0.722116 44.111 0.899138 44.0775 1.06981C44.0439 1.24049 43.944 1.39088 43.7996 1.48795C43.5161 1.65211 14.758 18.0683 2.01306 24.8138C3.8636 27.6493 11.236 39.3346 14.5192 51.408C14.5906 51.5327 14.6134 51.6795 14.5831 51.82C14.5528 51.9605 14.4716 52.0849 14.355 52.1691Z" fill="white"/>
</svg>
