<svg width="21" height="4" viewBox="0 0 21 4" fill="none" xmlns="http://www.w3.org/2000/svg">
<path d="M1.04445 2.94801C1.14173 3.01068 1.25797 3.0371 1.37278 3.02263L19.9081 1.97797C20.0853 1.96043 20.2504 1.88007 20.3736 1.75143C20.4968 1.6228 20.5699 1.45437 20.5797 1.27655C20.5935 1.19631 20.5888 1.11397 20.5661 1.03578C20.5434 0.957599 20.5032 0.885609 20.4486 0.825235C20.3939 0.764861 20.3263 0.717684 20.2508 0.687283C20.1752 0.656882 20.0938 0.644059 20.0126 0.649755L1.47725 1.69441C1.29846 1.71153 1.13149 1.79133 1.00585 1.9197C0.880222 2.04806 0.80402 2.21671 0.790751 2.39583C0.779727 2.50216 0.79745 2.60949 0.842078 2.70662C0.886706 2.80376 0.956599 2.88711 1.04445 2.94801Z" fill="white"/>
</svg>
