<svg width="9" height="12" viewBox="0 0 9 12" fill="none" xmlns="http://www.w3.org/2000/svg">
<path d="M1.77161 11.7073C1.66129 11.7687 1.53462 11.7945 1.40904 11.7812C1.28345 11.7678 1.16511 11.7159 1.07019 11.6326C0.927397 11.5278 0.827477 11.3747 0.78905 11.2018C0.750623 11.0289 0.776279 10.8479 0.861237 10.6924L7.0397 0.947203C7.08652 0.879368 7.14722 0.822263 7.21778 0.779647C7.28833 0.737031 7.36712 0.709867 7.44896 0.699991C7.53079 0.690115 7.61377 0.697747 7.69243 0.722353C7.7711 0.74696 7.84364 0.788001 7.90526 0.842748C8.04805 0.947574 8.14793 1.10067 8.18635 1.27359C8.22478 1.44651 8.19917 1.62749 8.11421 1.78293L1.93575 11.5431C1.89294 11.6085 1.83707 11.6644 1.77161 11.7073Z" fill="white"/>
</svg>
