<svg width="8" height="14" viewBox="0 0 8 14" fill="none" xmlns="http://www.w3.org/2000/svg">
<path d="M6.86647 13.2621C6.9632 13.3282 7.07764 13.3636 7.19479 13.3636C7.31195 13.3636 7.42636 13.3282 7.52309 13.2621C7.6726 13.1667 7.78325 13.0212 7.83521 12.8517C7.88717 12.6821 7.87704 12.4996 7.80665 12.3368L2.1207 0.815691C2.08332 0.742949 2.03025 0.67942 1.96532 0.629691C1.9004 0.579962 1.82523 0.545264 1.74526 0.528128C1.66529 0.510992 1.58252 0.511829 1.50292 0.530588C1.42332 0.549346 1.34887 0.585552 1.28497 0.636591C1.13285 0.729697 1.01912 0.874219 0.964364 1.04396C0.90961 1.21369 0.917462 1.39743 0.986498 1.56188L6.67245 13.083C6.72072 13.1584 6.78753 13.22 6.86647 13.2621Z" fill="white"/>
</svg>
