<svg width="18" height="3" viewBox="0 0 18 3" fill="none" xmlns="http://www.w3.org/2000/svg">
<path d="M1.00276 2.32106C1.1012 2.38213 1.21528 2.41324 1.33109 2.4106L16.8518 1.72412C17.0295 1.70421 17.1949 1.62353 17.32 1.49572C17.4451 1.36791 17.5222 1.20081 17.5383 1.0227C17.5492 0.940939 17.5421 0.857789 17.5176 0.77904C17.4931 0.70029 17.4516 0.627834 17.3962 0.566737C17.3408 0.505641 17.2727 0.457362 17.1968 0.425279C17.1208 0.393195 17.0387 0.37807 16.9563 0.380965L1.43554 1.06747C1.25782 1.08738 1.09242 1.16806 0.967332 1.29587C0.842242 1.42368 0.765148 1.59077 0.749064 1.76889C0.73804 1.87521 0.755763 1.98255 0.800391 2.07968C0.845019 2.17681 0.914912 2.26017 1.00276 2.32106Z" fill="white"/>
</svg>
