<svg width="12" height="17" viewBox="0 0 12 17" fill="none" xmlns="http://www.w3.org/2000/svg">
<path d="M10.1628 16.617C10.2647 16.691 10.3875 16.7309 10.5135 16.7309C10.6395 16.7309 10.7623 16.691 10.8642 16.617C11.007 16.5122 11.1069 16.3591 11.1453 16.1861C11.1838 16.0132 11.1581 15.8322 11.0731 15.6768L1.82041 1.09628C1.77402 1.02747 1.71309 0.969683 1.64192 0.926992C1.57076 0.884301 1.4911 0.857743 1.40855 0.849203C1.32601 0.840664 1.24259 0.850335 1.16419 0.877554C1.08579 0.904773 1.01432 0.948883 0.954825 1.00674C0.812031 1.11157 0.712156 1.26466 0.673729 1.43758C0.635302 1.61051 0.660935 1.79148 0.745893 1.94692L9.99865 16.5125C10.0447 16.5594 10.1008 16.5951 10.1628 16.617Z" fill="white"/>
</svg>
