<svg width="8" height="12" viewBox="0 0 8 12" fill="none" xmlns="http://www.w3.org/2000/svg">
<path d="M6.47704 11.7073C6.58736 11.7688 6.71401 11.7946 6.83959 11.7813C6.96517 11.7679 7.08354 11.716 7.17846 11.6327C7.32126 11.5279 7.42115 11.3748 7.45958 11.2019C7.49801 11.029 7.47235 10.848 7.38739 10.6925L1.20895 0.902525C1.16213 0.834691 1.10143 0.777585 1.03088 0.734969C0.960324 0.692354 0.881529 0.66519 0.799697 0.655313C0.717866 0.645437 0.634864 0.653069 0.556198 0.677675C0.477532 0.702282 0.40499 0.743301 0.343372 0.798048C0.197922 0.900764 0.0959392 1.05398 0.057312 1.2278C0.0186847 1.40162 0.0461829 1.5836 0.13444 1.73825L6.31288 11.4984C6.35028 11.5801 6.40655 11.6517 6.47704 11.7073Z" fill="white"/>
</svg>
