<svg width="18" height="18" viewBox="0 0 18 18" fill="none" xmlns="http://www.w3.org/2000/svg">
<path d="M18 13.42V16.9561C18 17.4811 17.5941 17.9167 17.0705 17.9537C16.6331 17.9846 16.2763 18 16 18C7.1634 18 0 10.8366 0 2C0 1.72371 0.01545 1.36687 0.04635 0.9295C0.08337 0.40588 0.51894 0 1.04386 0H4.5801C4.83678 0 5.05176 0.19442 5.07753 0.4498C5.10067 0.67907 5.12218 0.86314 5.14207 1.00202C5.34435 2.41472 5.75753 3.75936 6.3487 5.00303C6.44359 5.20265 6.38171 5.44159 6.20185 5.57006L4.04355 7.1118C5.35752 10.1811 7.8189 12.6425 10.8882 13.9565L12.4271 11.8019C12.5572 11.6199 12.799 11.5573 13.001 11.6532C14.2446 12.2439 15.5891 12.6566 17.0016 12.8584C17.1396 12.8782 17.3225 12.8995 17.5502 12.9225C17.8056 12.9483 18 13.1633 18 13.42Z" fill="#000C1A"/>
</svg>
