<svg width="20" height="22" viewBox="0 0 20 22" fill="none" xmlns="http://www.w3.org/2000/svg">
<path d="M18.8464 12.0373L1.65422 21.5288C1.49766 21.6005 1.31924 21.6078 1.15734 21.5492C0.995439 21.4905 0.863039 21.3707 0.788662 21.2154C0.741105 21.145 0.707988 21.0659 0.691244 20.9826C0.674501 20.8993 0.674449 20.8136 0.691108 20.7303C0.707766 20.647 0.740813 20.5678 0.788298 20.4974C0.835783 20.4269 0.896771 20.3666 0.96774 20.32L17.6674 11.112L12.9366 1.69509C12.8944 1.62286 12.867 1.54289 12.8562 1.45991C12.8453 1.37692 12.8512 1.29262 12.8734 1.21194C12.8957 1.13127 12.9339 1.05587 12.9857 0.990191C13.0376 0.92451 13.1021 0.869869 13.1754 0.829512C13.3379 0.764704 13.5193 0.765875 13.681 0.832769C13.8426 0.899662 13.9718 1.027 14.041 1.18769L19.0553 11.1866C19.1313 11.3293 19.152 11.4949 19.1135 11.6519C19.0749 11.8088 18.9798 11.946 18.8464 12.0373Z" fill="white"/>
</svg>
