<svg width="46" height="51" viewBox="0 0 46 51" fill="none" xmlns="http://www.w3.org/2000/svg">
<path d="M44.738 29.2758H44.6336C33.784 33.0515 2.17544 50.2736 1.86205 50.4377C1.70549 50.5094 1.52702 50.5167 1.36512 50.4581C1.20322 50.3995 1.07082 50.2796 0.996441 50.1243C0.948884 50.0539 0.915813 49.9748 0.899069 49.8915C0.882325 49.8083 0.882273 49.7225 0.898932 49.6392C0.915591 49.5559 0.948592 49.4767 0.996077 49.4063C1.04356 49.3359 1.1046 49.2756 1.17556 49.2289C1.48896 49.0647 32.1274 32.38 43.5441 28.2013C42.0517 24.545 34.3959 6.00965 30.1127 1.48775C29.9931 1.36045 29.9265 1.19233 29.9265 1.01765C29.9265 0.842967 29.9931 0.674872 30.1127 0.547571C30.1687 0.486498 30.2367 0.437723 30.3125 0.404359C30.3883 0.370994 30.4702 0.35376 30.553 0.35376C30.6358 0.35376 30.7177 0.370994 30.7935 0.404359C30.8693 0.437723 30.9373 0.486498 30.9932 0.547571C35.8882 5.74104 44.5739 27.4104 44.947 28.3655C44.9978 28.4375 45.0329 28.5194 45.05 28.6058C45.067 28.6923 45.0656 28.7814 45.0459 28.8673C45.0262 28.9532 44.9886 29.034 44.9355 29.1044C44.8825 29.1748 44.8152 29.2332 44.738 29.2758Z" fill="white"/>
</svg>
