<svg width="243" height="186" viewBox="0 0 243 186" fill="none" xmlns="http://www.w3.org/2000/svg">
<path opacity="0.1" d="M0.345871 92.4386C2.65906 95.3338 4.58424 98.5573 7.15113 101.393C7.63956 101.927 8.00165 102.565 8.2107 103.258C10.2466 103.528 12.3171 103.212 14.1802 102.348C21.4033 99.1095 27.9847 93.6325 33.7154 88.2301C34.9242 87.081 36.1778 85.9766 37.4464 84.8872C31.7903 91.185 26.164 97.4977 20.4482 103.736C19.6043 104.61 18.9428 105.644 18.5021 106.776C18.0615 107.909 17.8504 109.117 17.8813 110.332C20.521 113.336 23.4337 116.089 26.5819 118.555C27.1683 118.955 27.6745 119.461 28.0742 120.048C30.3138 119.854 32.3854 118.781 33.8348 117.063C46.0574 103.781 58.1606 90.7223 71.6666 78.8132C70.5921 80.3055 69.4877 81.7979 68.443 83.3948C61.3543 93.8414 53.7581 104.019 45.8485 113.929C40.252 120.913 30.6113 129.494 28.8354 138.747C29.2085 139.195 29.5666 139.657 29.9546 140.105C30.3427 140.553 30.9695 141.254 31.447 141.806C31.945 141.901 32.4208 142.089 32.8499 142.359C35.2227 143.851 36.73 147.075 34.8347 149.671C34.4318 150.255 33.9261 150.761 33.3423 151.164C30.462 154.79 27.6564 158.446 24.9552 162.222C24.8153 162.419 24.6858 162.623 24.5672 162.834C26.5073 168.371 31.0888 172.37 35.566 176.161C37.1928 175.777 38.662 174.901 39.7745 173.654C45.1769 167.819 51.3404 162.67 56.3249 156.476C61.6826 149.835 66.1 142.493 71.1741 135.583L71.4427 135.255C77.5764 128.42 83.7399 121.6 89.7094 114.615C94.9178 109.362 100.156 104.169 105.29 99.0647C113.393 90.8567 121.616 82.6486 130.153 74.7539C128.034 77.8879 125.914 81.007 123.736 84.1111C114.125 97.7962 103.454 110.705 93.1717 123.883C88.0977 130.375 83.4564 137.165 78.5464 143.761C74.6663 148.955 68.8609 153.701 65.8165 159.416C65.1875 160.558 64.7823 161.809 64.6226 163.103C64.9725 163.394 65.288 163.724 65.5628 164.088C68.111 167.107 71.2896 169.532 74.8752 171.191C75.6678 171.58 76.3198 172.206 76.7407 172.982C78.179 172.563 79.5084 171.835 80.6358 170.848C85.4613 166.663 90.0171 162.177 94.2761 157.417C92.8795 159.727 91.7671 162.197 90.963 164.774C88.5454 173.027 97.7533 179.101 104.827 175.43L105.439 175.101C106.264 177.466 107.912 179.456 110.081 180.708C112.251 181.96 114.798 182.391 117.259 181.922C119.99 185.563 124.721 187.473 129.063 184.205C146.763 170.684 163.627 155.715 180.341 140.926L184.819 136.867C181.929 141.414 178.811 145.812 175.476 150.044C171.641 154.909 166.298 159.984 164.269 166.028C164.473 166.163 164.668 166.312 164.851 166.475C169.163 170.462 172.798 175.124 175.611 180.28C175.611 180.28 175.611 180.369 175.611 180.414C183.073 178.743 190.863 173.922 197.176 170.296C205.29 165.474 212.957 159.935 220.083 153.745C220.074 152.966 220.211 152.191 220.486 151.462C220.661 151.043 220.861 150.634 221.083 150.238C221.083 149.806 221.083 149.358 221.083 148.91C220.462 147.699 219.963 146.429 219.591 145.119C218.432 144.577 217.449 143.718 216.755 142.642C216.091 141.438 215.766 140.077 215.815 138.702C215.815 138.329 215.905 137.956 215.965 137.583C215.28 137.032 214.784 136.28 214.547 135.434C212.829 135.751 211.229 136.53 209.92 137.687C207.95 139.404 205.951 141.06 203.951 142.687C206.518 138.374 208.995 133.986 211.487 129.793C215.875 122.331 220.442 115.242 225.516 108.258C229.336 102.945 234.47 98.3186 235.097 92.4386C231.53 89.4538 229.053 85.6184 225.963 82.1113C225.806 81.9222 225.661 81.7228 225.531 81.5144C222.303 81.7837 219.208 82.9236 216.576 84.8125C217.397 83.8425 218.203 82.8575 218.949 81.8278C225.71 72.5751 235.261 65.0982 241.335 55.4575C242.063 54.368 242.57 53.1459 242.827 51.8609L240.708 49.1746C240.11 48.4973 239.7 47.6751 239.52 46.7899C239.339 45.9048 239.394 44.9877 239.678 44.1304L239.529 43.996C239.783 43.6975 240.037 43.414 240.275 43.1006C241.291 41.8121 242.018 40.3211 242.409 38.7279C239.578 34.2967 236.05 30.3509 231.963 27.0426C226.411 27.4456 221.516 31.0571 216.606 33.8777C213.263 35.8078 209.94 37.7977 206.637 39.8472C208.316 37.7511 209.72 35.4492 210.816 32.9972C211.219 32.0448 211.486 31.0398 211.607 30.0125C211.334 29.861 211.074 29.6862 210.831 29.4901C206.713 26.5042 202.894 23.1255 199.429 19.4017C198.917 19.5922 198.419 19.8166 197.937 20.0732C194.699 21.8387 191.574 23.8024 188.579 25.9532C189.067 24.5728 189.314 23.1191 189.311 21.6552C188.567 21.7585 187.81 21.7 187.092 21.4837C186.373 21.2673 185.71 20.8982 185.147 20.4015C182.461 18.0884 180.297 15.1335 177.685 12.7904C176.828 12.9988 176.014 13.3576 175.282 13.85C168.253 18.6107 162.299 24.8787 155.583 30.0722C153.897 31.3855 152.195 32.6689 150.494 33.9523C150.948 32.6195 151.111 31.2047 150.971 29.8035C150.3 29.624 149.674 29.3035 149.136 28.8633C145.912 26.2666 142.763 23.5952 139.585 20.9537C138.764 21.2489 137.99 21.661 137.286 22.1775C134.121 24.4396 131.128 26.9337 128.332 29.6394C128.259 29.0782 128.139 28.5241 127.974 27.9828C127.354 28.2689 126.671 28.3891 125.99 28.3315C125.31 28.274 124.657 28.0407 124.094 27.6545C121.483 25.7916 118.991 23.768 116.632 21.5954C112.901 22.5804 110.319 25.2965 107.319 27.565L105.827 28.729C105.634 28.3559 105.414 27.9968 105.17 27.6545C104.228 27.7859 103.271 27.5625 102.484 27.0277C101.207 26.0755 99.9904 25.0437 98.8428 23.9385L98.3503 23.4758C97.0793 23.2331 95.7708 23.2688 94.5149 23.5803C87.635 25.4309 81.4715 30.1766 75.5617 34.3404C76.7108 32.9972 77.8749 31.6392 79.0091 30.2512C83.322 24.9533 89.6497 19.1927 91.8435 12.492C91.556 12.2075 91.3007 11.8922 91.0824 11.5518C90.2616 10.1937 89.3363 8.83562 88.3663 7.50741C85.1036 5.60379 82.1705 3.18472 79.6806 0.343994C79.2064 0.467288 78.7424 0.626959 78.2927 0.821566C71.3532 3.80632 66.1597 9.3878 60.9662 14.6857C57.2651 18.4465 53.6834 22.3416 50.2211 26.3114C50.0122 25.7868 49.747 25.2864 49.4302 24.819C48.5822 25.0892 47.6786 25.1351 46.8076 24.952C45.9366 24.7689 45.128 24.3631 44.4606 23.7743C42.9682 22.5357 41.3564 21.4014 39.7446 20.2523C38.3232 20.3405 36.938 20.7373 35.6854 21.4152C34.4329 22.093 33.343 23.0355 32.4917 24.1773C24.7462 34.2508 3.01725 61.7255 10.2553 77.2462C6.65017 80.7204 3.62686 84.7515 1.30101 89.1852C0.831187 90.2193 0.509621 91.3146 0.345871 92.4386Z" fill="white"/>
</svg>
