<svg width="16" height="4" viewBox="0 0 16 4" fill="none" xmlns="http://www.w3.org/2000/svg">
<path d="M15.2469 3.24594C15.145 3.31089 15.0233 3.33735 14.9037 3.32057L1.47226 2.00727C1.29551 1.98229 1.13356 1.89477 1.01582 1.7606C0.898077 1.62643 0.832359 1.45449 0.830546 1.27599C0.820947 1.19529 0.829764 1.11346 0.856369 1.03666C0.882975 0.959867 0.926651 0.890118 0.984119 0.832649C1.04159 0.77518 1.11136 0.731504 1.18816 0.704899C1.26495 0.678294 1.34678 0.669454 1.42749 0.679053L14.8589 1.99235C15.0359 2.01365 15.1993 2.09758 15.3198 2.22897C15.4402 2.36037 15.5097 2.53054 15.5155 2.70869C15.5238 2.8142 15.5032 2.91998 15.4559 3.01465C15.4085 3.10931 15.3363 3.18928 15.2469 3.24594Z" fill="white"/>
</svg>
