<svg width="22" height="51" viewBox="0 0 22 51" fill="none" xmlns="http://www.w3.org/2000/svg">
<path d="M0.879455 50.9728C1.0732 51.0031 1.27107 50.9558 1.43026 50.8413C1.58945 50.7268 1.69717 50.5543 1.73012 50.361C7.22207 18.6032 20.9967 1.91839 21.131 1.75423C21.2577 1.60184 21.3186 1.4054 21.3004 1.20809C21.2822 1.01078 21.1864 0.828755 21.034 0.702098C20.8816 0.575441 20.6852 0.514507 20.4879 0.532699C20.2905 0.55089 20.1085 0.646722 19.9819 0.799107C19.8476 0.963268 5.81923 17.9316 0.252659 50.0476C0.217774 50.2414 0.260954 50.4412 0.372781 50.6033C0.484608 50.7655 0.656023 50.8769 0.849624 50.9131L0.879455 50.9728Z" fill="white"/>
</svg>
