<svg width="16" height="4" viewBox="0 0 16 4" fill="none" xmlns="http://www.w3.org/2000/svg">
<path d="M1.00268 3.24594C1.10456 3.31089 1.22629 3.33735 1.34594 3.32057L14.7773 2.00727C14.9556 1.98265 15.1193 1.8957 15.2395 1.76183C15.3597 1.62797 15.4286 1.45583 15.434 1.27599C15.4436 1.19529 15.4347 1.11346 15.4081 1.03666C15.3815 0.959867 15.3378 0.890118 15.2804 0.832649C15.2229 0.77518 15.1531 0.731504 15.0764 0.704899C14.9996 0.678294 14.9177 0.669454 14.837 0.679053L1.40563 1.99235C1.23013 2.01399 1.06842 2.09848 0.950439 2.23018C0.832454 2.36189 0.766195 2.53188 0.763915 2.70869C0.752445 2.81137 0.768496 2.91527 0.810461 3.00969C0.852425 3.1041 0.918771 3.18565 1.00268 3.24594Z" fill="white"/>
</svg>
