<svg width="18" height="3" viewBox="0 0 18 3" fill="none" xmlns="http://www.w3.org/2000/svg">
<path d="M17.6377 2.42527C17.5393 2.48634 17.4252 2.51745 17.3094 2.51481L1.41562 1.47015C1.23682 1.45303 1.06987 1.37323 0.944241 1.24486C0.818609 1.1165 0.742407 0.947847 0.729138 0.768727C0.717544 0.686292 0.724733 0.602303 0.750179 0.523041C0.775625 0.443779 0.81865 0.371294 0.876062 0.311012C0.933473 0.25073 1.00381 0.204208 1.08174 0.174928C1.15966 0.145648 1.24318 0.13437 1.32608 0.141931L17.2199 1.17168C17.3973 1.19535 17.561 1.27958 17.6834 1.41012C17.8058 1.54066 17.8793 1.70949 17.8915 1.88801C17.9013 1.99209 17.883 2.09691 17.8383 2.19144C17.7937 2.28598 17.7244 2.36676 17.6377 2.42527Z" fill="white"/>
</svg>
