<svg width="44" height="53" viewBox="0 0 44 53" fill="none" xmlns="http://www.w3.org/2000/svg">
<path d="M29.8942 52.1691H30.0882C30.2622 52.1849 30.4361 52.1379 30.5784 52.0367C30.7208 51.9354 30.8222 51.7865 30.8643 51.6169C34.5504 38.081 43.5047 24.9929 43.5942 24.8735C43.6993 24.7099 43.7418 24.5138 43.7136 24.3213C43.7074 24.2347 43.6778 24.1515 43.6278 24.0805C43.5779 24.0095 43.5095 23.9534 43.4301 23.9184C31.0732 17.3818 1.44949 0.458215 1.15102 0.279129C0.994092 0.205692 0.814854 0.195747 0.650766 0.25137C0.486678 0.306994 0.350443 0.423875 0.270522 0.5776C0.17224 0.720302 0.134338 0.896059 0.165088 1.06658C0.195838 1.2371 0.292747 1.38857 0.434684 1.48795C0.733159 1.65211 29.4763 18.0683 42.2212 24.8138C40.3707 27.6493 32.9984 39.3346 29.7002 51.408C29.6381 51.5374 29.6235 51.6846 29.659 51.8238C29.6944 51.9629 29.7777 52.0852 29.8942 52.1691Z" fill="white"/>
</svg>
