<svg width="7" height="15" viewBox="0 0 7 15" fill="none" xmlns="http://www.w3.org/2000/svg">
<path d="M5.52286 14.5454C5.61536 14.6006 5.72107 14.6297 5.8288 14.6297C5.93652 14.6297 6.04224 14.6006 6.13474 14.5454C6.2919 14.4599 6.41394 14.3218 6.47943 14.1554C6.54493 13.9889 6.5497 13.8047 6.49289 13.635L1.46359 0.845338C1.43306 0.768829 1.3858 0.700115 1.32527 0.64424C1.26475 0.588364 1.19249 0.546759 1.11379 0.522433C1.03509 0.498107 0.951949 0.491692 0.87045 0.503669C0.788951 0.515646 0.711152 0.545697 0.642777 0.591637C0.485608 0.677088 0.363555 0.815175 0.298056 0.98165C0.232558 1.14813 0.227793 1.33235 0.284598 1.50199L5.31392 14.2917C5.35775 14.3946 5.43028 14.4826 5.52286 14.5454Z" fill="white"/>
</svg>
