<svg width="20" height="19" viewBox="0 0 20 19" fill="none" xmlns="http://www.w3.org/2000/svg">
<path d="M5.57587 18.9765H5.48633C5.31801 19.0296 5.13569 19.0158 4.97729 18.938C4.81889 18.8602 4.69657 18.7243 4.63567 18.5587L0.785309 9.72381C0.716418 9.57934 0.702672 9.41469 0.746642 9.26079C0.790613 9.10689 0.889278 8.97435 1.02409 8.88808L18.5297 0.172604C18.6904 0.106846 18.8703 0.105854 19.0316 0.169848C19.193 0.233843 19.3233 0.357846 19.3953 0.515844C19.4405 0.587764 19.4707 0.668141 19.4839 0.75208C19.4972 0.836018 19.4932 0.921763 19.4723 1.00412C19.4513 1.08647 19.4139 1.1637 19.3621 1.23113C19.3104 1.29856 19.2455 1.35477 19.1714 1.39634L2.11355 9.93274L5.71018 18.2005C5.77988 18.3257 5.80458 18.4711 5.78014 18.6123C5.7557 18.7535 5.6836 18.882 5.57587 18.9765Z" fill="white"/>
</svg>
