<svg width="23" height="13" viewBox="0 0 23 13" fill="none" xmlns="http://www.w3.org/2000/svg">
<path d="M22.3977 10.2898H22.2932C22.125 10.3341 21.9464 10.3144 21.792 10.2344C21.6376 10.1544 21.5183 10.0199 21.4575 9.85704L18.1444 2.17128C15.1596 3.90244 2.92214 11.3643 1.72824 12.2299C1.58091 12.3133 1.40707 12.3365 1.24301 12.2948C1.07895 12.2531 0.937355 12.1497 0.847741 12.006C0.740448 11.87 0.689869 11.6978 0.706555 11.5254C0.723241 11.353 0.805899 11.1937 0.93728 11.0808C2.31027 10.0958 17.3534 1.00723 17.9504 0.634137C18.0314 0.593444 18.1209 0.572266 18.2116 0.572266C18.3022 0.572266 18.3917 0.593444 18.4727 0.634137C18.6549 0.7153 18.8028 0.85793 18.8906 1.03708L22.5767 9.54363C22.6365 9.66978 22.6513 9.81256 22.6187 9.94829C22.5862 10.084 22.5082 10.2045 22.3977 10.2898Z" fill="white"/>
</svg>
