<svg width="22" height="51" viewBox="0 0 22 51" fill="none" xmlns="http://www.w3.org/2000/svg">
<path d="M21.3698 50.9728C21.1761 51.003 20.9782 50.9558 20.819 50.8413C20.6598 50.7268 20.5521 50.5542 20.5192 50.3609C15.0123 18.6031 1.23767 1.91836 1.11828 1.7542C1.05428 1.68032 1.00575 1.59435 0.975542 1.50139C0.945335 1.40842 0.934083 1.31035 0.942431 1.21296C0.950779 1.11557 0.97855 1.02084 1.02414 0.934369C1.06972 0.847902 1.13217 0.771456 1.20781 0.709542C1.36117 0.583209 1.55786 0.521863 1.75584 0.538594C1.95383 0.555325 2.13745 0.648804 2.26743 0.799081C2.40175 0.963243 16.4301 17.9316 21.9967 50.0475C22.0138 50.1446 22.0115 50.2441 21.9899 50.3403C21.9684 50.4364 21.928 50.5274 21.8711 50.6078C21.8142 50.6883 21.742 50.7567 21.6585 50.8091C21.575 50.8615 21.482 50.8969 21.3848 50.9131L21.3698 50.9728Z" fill="white"/>
</svg>
